<?xml version="1.0" standalone="no"?>
<!DOCTYPE svg PUBLIC "-//W3C//DTD SVG 20010904//EN"
 "http://www.w3.org/TR/2001/REC-SVG-20010904/DTD/svg10.dtd">
<svg version="1.0" xmlns="http://www.w3.org/2000/svg"
 width="503.000000pt" height="512.000000pt" viewBox="0 0 503.000000 512.000000"
 preserveAspectRatio="xMidYMid meet">

<g transform="translate(0.000000,512.000000) scale(0.100000,-0.100000)"
fill="#000000" stroke="none">
<path d="M1758 4834 c-459 -86 -741 -299 -936 -705 -68 -141 -98 -249 -128
-457 -17 -124 -20 -461 -5 -582 30 -229 81 -503 102 -542 5 -9 24 -19 42 -22
17 -3 97 -17 177 -31 157 -28 253 -45 425 -75 273 -48 505 -89 645 -116 107
-21 200 -29 200 -17 0 18 -77 226 -125 338 -83 192 -187 590 -214 813 -15 123
-16 341 -1 422 55 317 226 476 585 547 110 21 431 25 575 5 330 -44 391 -47
431 -21 12 7 12 13 -1 36 -17 31 -20 32 -185 110 -187 87 -333 140 -610 223
-48 15 -254 58 -330 70 -235 35 -471 37 -647 4z"/>
<path d="M2575 4030 c-83 -10 -140 -28 -210 -69 -185 -107 -262 -305 -205
-522 68 -260 250 -451 555 -580 62 -26 143 -41 245 -45 104 -5 123 -3 198 20
46 14 107 39 135 55 59 34 133 108 165 164 52 91 68 245 37 360 -77 294 -433
580 -762 612 -32 4 -67 7 -78 9 -11 2 -47 0 -80 -4z"/>
<path d="M3642 3894 c-15 -26 5 -113 58 -254 68 -184 84 -266 84 -425 -1 -191
-36 -293 -161 -459 -166 -221 -472 -391 -873 -485 -232 -55 -468 -73 -765 -61
-358 15 -558 47 -970 155 -224 59 -235 61 -235 44 0 -12 14 -52 90 -249 24
-63 140 -370 200 -530 27 -74 55 -144 60 -155 5 -11 40 -101 76 -200 37 -99
74 -200 84 -225 45 -115 85 -220 154 -403 41 -109 77 -201 80 -204 11 -12 382
58 586 110 140 36 155 40 355 106 633 208 1124 515 1459 914 127 151 267 405
341 617 44 126 54 176 65 345 20 310 -68 625 -255 910 -72 111 -123 174 -255
317 -116 127 -162 160 -178 132z"/>
</g>
</svg>
